<?xml version="1.0" encoding="UTF-8"?>
<svg version="1.1" xmlns="http://www.w3.org/2000/svg" width="1155" height="759">
<path d="M0 0 C381.15 0 762.3 0 1155 0 C1155 250.47 1155 500.94 1155 759 C773.85 759 392.7 759 0 759 C0 508.53 0 258.06 0 0 Z " fill="#CDA6FC" transform="translate(0,0)"/>
<path d="M0 0 C17.16 0 34.32 0 52 0 C52.33 11.88 52.66 23.76 53 36 C60.60658245 29.02729942 68.17838773 22.03989095 75.6640625 14.94140625 C77.00812522 13.67116516 78.36331455 12.41256358 79.730896 11.16767883 C82.02912321 9.04438378 82.02912321 9.04438378 83.99371338 6.67228699 C88.17127669 2.15104328 91.56678989 -0.45033093 97.85682297 -0.95473766 C101.70573445 -1.0739325 105.53479969 -0.9936985 109.3828125 -0.87890625 C111.05000347 -0.86208981 112.71723935 -0.84929299 114.38449097 -0.84031677 C118.74220722 -0.80618852 123.09716099 -0.71799885 127.45379639 -0.61798096 C131.91152585 -0.52539382 136.3697082 -0.48469909 140.828125 -0.43945312 C149.5533417 -0.34334811 158.27632586 -0.1900448 167 0 C166.05435915 1.11798184 165.10659861 2.23417095 164.15795898 3.34960938 C163.63040512 3.97138062 163.10285126 4.59315186 162.55931091 5.23376465 C160.54627451 7.513936 158.357398 9.5063771 156.0625 11.5 C153.07602586 14.13381128 150.16185364 16.78075121 147.375 19.625 C145.0468 21.99671776 142.64701477 24.21043614 140.125 26.375 C137.1153247 28.96634205 134.28911384 31.67254783 131.5 34.5 C128.13885518 37.9071879 124.66298797 41.07458174 121.03125 44.1875 C117.96025683 46.92777083 115.11213124 49.87946902 112.22265625 52.80859375 C109.5729856 55.42101068 106.78827197 57.83302621 103.96484375 60.25390625 C101.89179676 62.09615675 99.94564198 64.02401662 98 66 C95.44009866 68.59982183 92.8322046 71.06268398 90.0625 73.4375 C87.07198284 76.00665271 84.26883316 78.69317256 81.5 81.5 C78.12739668 84.91888261 74.64047525 88.10280693 70.99609375 91.2265625 C67.50832134 94.32528789 64.25855627 97.66344637 61 101 C66.63172574 108.07988378 73.30508208 113.95578041 80 120 C80.91910156 120.83402344 81.83820313 121.66804688 82.78515625 122.52734375 C85.18196931 124.69447766 87.58387013 126.85441656 90 129 C90.80800049 129.89223267 90.80800049 129.89223267 91.63232422 130.80249023 C95.57620256 134.85651847 98.3080081 136.4606103 104.03125 136.68359375 C106.18856858 136.63755341 108.34537901 136.55476705 110.5 136.4375 C112.16289063 136.39012695 112.16289063 136.39012695 113.859375 136.34179688 C116.57571676 136.25983829 119.28642716 136.14518763 122 136 C117.84171661 131.72476489 113.55820521 127.68644363 109.04394531 123.79003906 C104.8591917 120.12513062 100.85945363 116.25739602 96.82421875 112.4296875 C92.98674148 108.80746524 89.09472299 105.32935421 85 102 C88.87792288 97.07091854 92.76116833 93.4576289 98 90 C98.75023437 90.68964844 99.50046875 91.37929688 100.2734375 92.08984375 C105.14194307 96.56111643 110.0148402 101.02575876 114.9375 105.4375 C119.90238091 109.89397711 124.80134952 114.41948062 129.69921875 118.94921875 C136.4078422 125.15316761 143.1346369 131.33686793 149.9375 137.4375 C154.01809315 141.1053741 158.07986156 144.79310037 162.125 148.5 C162.70628662 149.02907959 163.28757324 149.55815918 163.88647461 150.10327148 C165.2769392 151.38151065 166.64124752 152.68810105 168 154 C168 154.33 168 154.66 168 155 C158.36808535 155.35002151 148.73840838 155.61527081 139.10148621 155.77718258 C134.62459283 155.85496235 130.15209632 155.96011098 125.67773438 156.1315918 C92.75169591 157.36110242 92.75169591 157.36110242 83.86975098 149.7959137 C81.43483682 147.26460347 79.29356989 144.65343237 77.2905426 141.76982117 C75.4478437 139.24278525 73.19887927 137.31539789 70.8125 135.3125 C67.04911962 131.95256408 63.32854642 128.55050892 59.625 125.125 C59.0794043 124.6206543 58.53380859 124.11630859 57.97167969 123.59667969 C56.86664408 122.57509219 55.76166376 121.55344489 54.65673828 120.53173828 C51.96102209 118.0394124 49.26375897 115.54881825 46.5625 113.0625 C45.17224609 111.78052734 45.17224609 111.78052734 43.75390625 110.47265625 C40.89232251 107.90331936 37.96870436 105.4440438 35 103 C38.29875247 95.1156191 46.56731317 89.28923229 52.9375 83.84375 C55.38924689 81.65203687 57.68885573 79.33932896 60 77 C63.52106323 73.43599698 67.13186008 70.09695832 70.9375 66.84375 C73.38924689 64.65203687 75.68885573 62.33932896 78 60 C81.52106323 56.43599698 85.13186008 53.09695832 88.9375 49.84375 C92.29035849 46.84649772 95.39893756 43.60840366 98.55859375 40.41015625 C101.26815184 37.7352805 104.098921 35.26063833 106.9921875 32.7890625 C110.07897199 30.03858138 112.9441568 27.07758633 115.82421875 24.11328125 C118.10075675 21.90213752 120.49384248 19.94435688 123 18 C108.21477886 15.94927292 108.21477886 15.94927292 94.79296875 20.6484375 C92.03511214 23.27933594 89.73514513 26.20184662 87.45117188 29.24462891 C85.31500001 31.82859184 82.79660503 33.86735159 80.24414062 36.02905273 C75.7757359 39.95349044 71.67324731 44.26687826 67.5 48.5 C62.08410901 53.99359388 56.67560959 59.38709611 50.81347656 64.40478516 C47.36884397 67.43483757 44.22706397 70.76984284 41.05078125 74.07617188 C39.7360282 75.41980193 38.37183112 76.71469976 37 78 C36.34 78 35.68 78 35 78 C35 57.87 35 37.74 35 17 C29.06 17 23.12 17 17 17 C17 56.93 17 96.86 17 138 C27.56 138 38.12 138 49 138 C59.34722222 145.56944444 59.34722222 145.56944444 62.7902832 150.37426758 C64.18330391 152.32846925 64.18330391 152.32846925 67 155 C44.89 155 22.78 155 0 155 C0 103.85 0 52.7 0 0 Z " fill="#35384E" transform="translate(583,298)"/>
<path d="M0 0 C16.83 0 33.66 0 51 0 C51.05607422 8.05535156 51.05607422 8.05535156 51.11328125 16.2734375 C51.1435851 19.69143731 51.17474871 23.10938657 51.20898438 26.52734375 C51.26315041 31.94316956 51.31426611 37.35889538 51.34643555 42.77490234 C51.3725943 47.14525 51.41308395 51.51525864 51.46318626 55.88539505 C51.47977046 57.54615664 51.49133701 59.20697676 51.49761391 60.8678093 C51.55883362 75.58766354 53.0246869 86.0246869 63.75 96.75 C72.54120083 102.83621596 80.74000589 104.04321725 91.2578125 102.71484375 C100.03823105 100.94154353 107.09030981 95.34115581 112 88 C117.3569149 79.70476406 116.60474432 70.32341249 116.609375 60.83984375 C116.62437407 59.081492 116.64110482 57.32315425 116.65948486 55.56483459 C116.70297694 50.96342279 116.723117 46.36220098 116.73822021 41.76062012 C116.75785706 37.05449269 116.79981949 32.3485685 116.83984375 27.64257812 C116.91494934 18.42841397 116.96329304 9.21439721 117 0 C122.61 0 128.22 0 134 0 C134.09077601 10.07578765 134.16398816 20.15129868 134.20724869 30.22740459 C134.22802337 34.90737425 134.25615335 39.58704691 134.30175781 44.2668457 C134.34558008 48.79266545 134.36921297 53.31820157 134.37950897 57.8442173 C134.38683566 59.56120066 134.40114077 61.2781705 134.42292023 62.99503136 C134.6333538 80.28895024 131.3765537 94.43193766 119.0625 107.375 C108.22728586 117.5655085 95.59881872 121.46982765 80.921875 121.2109375 C66.89631791 120.45657487 55.50961891 114.21665377 46 104 C38.54549974 94.30620322 33.86057979 83.22460135 33.88647461 70.92456055 C33.88655014 69.72369308 33.88662567 68.52282562 33.88670349 67.28556824 C33.89186478 65.99894791 33.89702606 64.71232758 33.90234375 63.38671875 C33.90421044 62.04865064 33.90563316 60.71058185 33.90663147 59.37251282 C33.91043686 55.8626413 33.92025012 52.35281161 33.93133545 48.84295654 C33.94159223 45.25663824 33.94613821 41.67031314 33.95117188 38.08398438 C33.96187428 31.05597074 33.97945494 24.02799169 34 17 C28.72 17 23.44 17 18 17 C18.06335268 24.97263669 18.13912322 32.9448758 18.23571491 40.91716957 C18.28011011 44.62053809 18.31943025 48.32380436 18.34643555 52.02734375 C18.37278143 55.61319723 18.41339335 59.19865042 18.46318626 62.78425217 C18.48756116 64.79224226 18.49781789 66.80038822 18.50764465 68.8085022 C18.81797693 88.566666 24.39223888 104.48746981 38.35546875 118.484375 C50.7171005 130.24344567 65.20694014 136.40891478 82.25 136.3125 C83.78297729 136.30512817 83.78297729 136.30512817 85.34692383 136.29760742 C92.60819544 136.18475591 99.14673767 135.53937845 106 133 C107.010625 132.64808594 108.02125 132.29617188 109.0625 131.93359375 C116.030724 129.29437891 121.37172783 125.82905752 127 121 C128.03125 120.236875 129.0625 119.47375 130.125 118.6875 C142.27303741 107.3317259 148.80027086 90.85841823 149.3821249 74.43675041 C149.47075559 70.29498261 149.49692251 66.15431277 149.51171875 62.01171875 C149.52860116 60.21424665 149.54675607 58.4167861 149.56611633 56.61933899 C149.61323619 51.93254203 149.64328979 47.2457919 149.66955566 42.55883789 C149.69955502 37.75853224 149.7460178 32.95838746 149.79101562 28.15820312 C149.87661531 18.77220195 149.94262588 9.38621618 150 0 C155.94 0 161.88 0 168 0 C168.06818531 10.15436559 168.12304993 20.30857538 168.15543652 30.46311951 C168.17099221 35.17992766 168.19204232 39.89656904 168.22631836 44.61328125 C168.2592766 49.178005 168.27692858 53.74256987 168.28463173 58.30740356 C168.29011063 60.03584285 168.30080614 61.76427495 168.31719017 63.49264526 C168.55830197 90.01935972 161.65148985 111.85936784 143.1875 131.3125 C126.71167134 147.06183543 104.78123111 156.06099536 81.86962891 155.57592773 C58.39887327 154.36226687 37.68328176 144.42715561 21.41113281 127.5703125 C14.81021469 120.22479254 9.95932484 111.65687341 6.0625 102.625 C5.79203857 102.0151123 5.52157715 101.40522461 5.24291992 100.77685547 C-0.12336086 87.36370482 -0.43378452 72.71875303 -0.29296875 58.49609375 C-0.28735341 56.79403564 -0.28309252 55.09197259 -0.28010559 53.38990784 C-0.26880901 48.97260459 -0.23947849 44.55561103 -0.20599365 40.13842773 C-0.1694753 34.8050603 -0.15605907 29.47158762 -0.13863373 24.13813019 C-0.10982733 16.09187332 -0.05223609 8.04629202 0 0 Z " fill="#37394F" transform="translate(384,298)"/>
<path d="M0 0 C17.16 0 34.32 0 52 0 C52 28.38 52 56.76 52 86 C46.39 86 40.78 86 35 86 C35 63.23 35 40.46 35 17 C29.06 17 23.12 17 17 17 C17 45.38 17 73.76 17 103 C67.49 103 117.98 103 170 103 C170 120.16 170 137.32 170 155 C113.9 155 57.8 155 0 155 C0 149.39 0 143.78 0 138 C50.49 138 100.98 138 153 138 C153 132.06 153 126.12 153 120 C102.51 120 52.02 120 0 120 C0 80.4 0 40.8 0 0 Z " fill="#35384E" transform="translate(202,298)"/>
<path d="M0 0 C2.65565787 2.39969682 4.27998553 4.96444189 6.046875 8.06640625 C6.93161499 9.61062256 6.93161499 9.61062256 7.83422852 11.18603516 C8.46643311 12.30026855 9.0986377 13.41450195 9.75 14.5625 C10.41867512 15.7325532 11.08787351 16.9023075 11.75756836 18.07177734 C13.14953254 20.50354367 14.53923202 22.93658244 15.92724609 25.37060547 C19.1201952 30.96622876 22.34217311 36.54510411 25.5625 42.125 C26.17270996 43.18485107 26.78291992 44.24470215 27.41162109 45.33666992 C30.58860304 50.84922411 33.78721103 56.34781253 37.01953125 61.828125 C37.66656006 62.92753418 38.31358887 64.02694336 38.98022461 65.15966797 C40.21499017 67.25499878 41.45388694 69.34790228 42.69750977 71.43798828 C43.24850342 72.37368652 43.79949707 73.30938477 44.3671875 74.2734375 C44.85300293 75.09247559 45.33881836 75.91151367 45.83935547 76.75537109 C46.92617438 78.85722492 47.54503897 80.68810924 48 83 C40.41535414 84.52908343 32.41156963 85.73640535 25 83 C18.92192337 77.50459371 15.79314125 69.50411226 12.47705078 62.16064453 C10.33605239 57.57926186 7.75958888 53.3099027 5.125 49 C4.31261658 47.62646826 3.50243343 46.25163069 2.6953125 44.875 C2.13585937 43.92625 1.57640625 42.9775 1 42 C-1.2875096 44.92975222 -3.19978792 47.94000365 -5.046875 51.1640625 C-5.63662109 52.19015625 -6.22636719 53.21625 -6.83398438 54.2734375 C-7.46626953 55.37945312 -8.09855469 56.48546875 -8.75 57.625 C-9.41964393 58.79182622 -10.08957084 59.95849009 -10.75976562 61.125 C-12.15148769 63.54787512 -13.54199104 65.97144346 -14.93164062 68.39550781 C-18.10971032 73.9369003 -21.30578904 79.46790206 -24.5 85 C-25.73575706 87.14188094 -26.97143365 89.28380831 -28.20703125 91.42578125 C-30.50249458 95.40462432 -32.79823414 99.38330773 -35.09432983 103.36178589 C-36.12673478 105.15066918 -37.15907956 106.93958717 -38.19140625 108.72851562 C-39.48685948 110.97337636 -40.7824257 113.2181719 -42.078125 115.46289062 C-42.66464844 116.47931641 -43.25117187 117.49574219 -43.85546875 118.54296875 C-44.36746826 119.43008545 -44.87946777 120.31720215 -45.40698242 121.23120117 C-47.27819334 124.48352348 -49.13838577 127.74217509 -51 131 C-58.92 131 -66.84 131 -75 131 C-69.37868481 119.75736961 -69.37868481 119.75736961 -66.9765625 115.6875 C-66.43845947 114.7711377 -65.90035645 113.85477539 -65.34594727 112.91064453 C-64.77803467 111.95013184 -64.21012207 110.98961914 -63.625 110 C-62.37572478 107.87273476 -61.12704725 105.74511842 -59.87890625 103.6171875 C-59.23840332 102.52631836 -58.59790039 101.43544922 -57.93798828 100.31152344 C-54.78857787 94.92999121 -51.67480693 89.52804976 -48.5625 84.125 C-47.62978271 82.50658203 -47.62978271 82.50658203 -46.67822266 80.85546875 C-45.41567477 78.66449064 -44.15330512 76.47340981 -42.89111328 74.28222656 C-39.76319852 68.85340059 -36.63142753 63.42680025 -33.5 58 C-29.70260037 51.41827123 -25.90551907 44.83635928 -22.109375 38.25390625 C-14.75123049 25.49584057 -7.38465019 12.74274357 0 0 Z " fill="#36384E" transform="translate(849,322)"/>
<path d="M0 0 C2.6908148 3.23266975 4.93884808 6.42777197 6.9609375 10.11328125 C7.50741943 11.10126709 8.05390137 12.08925293 8.61694336 13.10717773 C9.19710205 14.16493408 9.77726074 15.22269043 10.375 16.3125 C15.13848026 24.90925435 19.96616631 33.45915236 24.9375 41.9375 C29.79942127 50.2337707 34.63619689 58.54347363 39.4375 66.875 C40.05931152 67.95370361 40.68112305 69.03240723 41.32177734 70.14379883 C43.84711251 74.52576772 46.37128175 78.90840777 48.89550781 83.29101562 C50.78398491 86.56931057 52.67309685 89.84723869 54.5625 93.125 C55.17287109 94.18436768 55.78324219 95.24373535 56.41210938 96.33520508 C59.60920881 101.8781128 62.82046411 107.4122919 66.0546875 112.93359375 C66.70622803 114.04653809 67.35776855 115.15948242 68.02905273 116.30615234 C69.27915124 118.43917189 70.53119536 120.57105264 71.78540039 122.70166016 C72.3396167 123.64702637 72.89383301 124.59239258 73.46484375 125.56640625 C73.955896 126.40115479 74.44694824 127.23590332 74.95288086 128.09594727 C76 130 76 130 76 131 C44.32 131 12.64 131 -20 131 C-18.02 127.37 -16.04 123.74 -14 120 C-12.92359253 117.46614624 -12.92359253 117.46614624 -11.82543945 114.88110352 C-10.31639004 112.19758895 -9.61064952 111.21014742 -6.67440796 110.19967651 C-3.67643298 109.85699642 -0.80957659 109.83146332 2.20703125 109.90234375 C3.28756271 109.89288223 4.36809418 109.88342072 5.48136902 109.87367249 C8.92647441 109.85310334 12.36765899 109.89449055 15.8125 109.9375 C18.15039957 109.93442531 20.48829757 109.92731129 22.82617188 109.91601562 C28.55158892 109.89717477 34.27502791 109.92917136 40 110 C39.62415771 109.34854004 39.24831543 108.69708008 38.86108398 108.02587891 C32.97119141 97.81673177 27.08129883 87.60758464 21.19140625 77.3984375 C20.58039062 76.33939209 19.969375 75.28034668 19.33984375 74.18920898 C18.10920605 72.05600566 16.87873841 69.92270422 15.6484375 67.78930664 C12.75448097 62.77152274 9.85901625 57.75463184 6.95724487 52.74136353 C5.93982294 50.98341931 4.92295539 49.22515558 3.90625 47.46679688 C2.6378119 45.27345599 1.36835898 43.08070153 0.09765625 40.88867188 C-1.05320114 38.89768859 -2.19688765 36.90253886 -3.33251953 34.90283203 C-4.47000764 32.92263677 -5.63925169 30.96042949 -6.83544922 29.01513672 C-11.09120797 21.86753624 -11.09120797 21.86753624 -10.6640625 17.8046875 C-10.11492188 16.87914062 -9.56578125 15.95359375 -9 15 C-8.65936523 14.38672852 -8.31873047 13.77345703 -7.96777344 13.14160156 C-6.81885262 11.10249015 -5.60846426 9.11396111 -4.375 7.125 C-3.95476563 6.43664062 -3.53453125 5.74828125 -3.1015625 5.0390625 C-2.07307528 3.35608342 -1.037279 1.67757468 0 0 Z " fill="#35384D" transform="translate(863,298)"/>
<path d="M0 0 C3.18875222 3.80918817 5.85226635 7.73776408 8.375 12 C8.75527344 12.60328125 9.13554688 13.2065625 9.52734375 13.828125 C10.5859375 15.625 10.5859375 15.625 12 19 C10.89363526 22.57956533 9.11889649 25.74092443 7.27734375 28.9921875 C6.73787109 29.94609375 6.19839844 30.9 5.64257812 31.8828125 C5.07990234 32.87023437 4.51722656 33.85765625 3.9375 34.875 C3.40189453 35.82375 2.86628906 36.7725 2.31445312 37.75 C-0.95536631 43.51348902 -4.31177127 49.21758895 -7.72827148 54.89501953 C-8.14105095 55.58193375 -8.55383041 56.26884796 -8.97911835 56.97657776 C-9.9856041 58.65133727 -10.99273469 60.32570923 -12 62 C-10.06346809 61.95550468 -10.06346809 61.95550468 -8.08781433 61.91011047 C4.10824749 61.64240275 16.30211532 61.47574524 28.50096607 61.40672016 C34.77250951 61.36801968 41.0394927 61.29437422 47.30932617 61.1394043 C53.36657725 60.99099838 59.41824926 60.93630172 65.47723961 60.94515038 C67.78239033 60.93231951 70.08761337 60.8863276 72.39139748 60.805933 C90.02025093 60.22223942 90.02025093 60.22223942 95.09026718 64.94857407 C98.56902255 69.45540734 104 77.02943131 104 83 C53.84 83 3.68 83 -48 83 C-45.36 78.38 -42.72 73.76 -40 69 C-38.76121094 66.82921875 -37.52242187 64.6584375 -36.24609375 62.421875 C-9.89757857 16.25455993 -9.89757857 16.25455993 0 0 Z " fill="#36384E" transform="translate(849,370)"/>
<path d="M0 0 C3.3 0 6.6 0 10 0 C10 3.63 10 7.26 10 11 C9.01 9.68 8.02 8.36 7 7 C5.35353315 5.31337542 3.68816933 3.64488294 2 2 C1.34 1.34 0.68 0.68 0 0 Z " fill="#000000" transform="translate(1145,0)"/>
<path d="M0 0 C3.3 0 6.6 0 10 0 C9.2575 0.515625 8.515 1.03125 7.75 1.5625 C4.46371455 4.47534392 3.01236241 7.12433906 1 11 C0.67 11 0.34 11 0 11 C0 7.37 0 3.74 0 0 Z " fill="#000000" transform="translate(0,0)"/>
<path d="M0 0 C0.33 0 0.66 0 1 0 C1 3.3 1 6.6 1 10 C-1.64 10 -4.28 10 -7 10 C-6.21625 9.0925 -5.4325 8.185 -4.625 7.25 C-2.69947504 4.94809764 -1.17794259 2.78422793 0 0 Z " fill="#000000" transform="translate(1154,749)"/>
<path d="M0 0 C0.99 1.32 1.98 2.64 3 4 C3.8875836 5.09010267 4.78276044 6.1740935 5.6875 7.25 C6.8321875 8.61125 6.8321875 8.61125 8 10 C5.36 10 2.72 10 0 10 C0 6.7 0 3.4 0 0 Z " fill="#000000" transform="translate(0,749)"/>
</svg>
